<svg xmlns="http://www.w3.org/2000/svg" viewBox="0 0 40 40" width="40" height="40">
  <defs>
    <linearGradient id="fav-grad" x1="0%" y1="0%" x2="100%" y2="100%">
      <stop offset="0%" stop-color="#4F46E5" />
      <stop offset="100%" stop-color="#06B6D4" />
    </linearGradient>
  </defs>
  <!-- Person 1 (Center) -->
  <circle cx="20" cy="12" r="6" fill="url(#fav-grad)" />
  <path d="M10 32C10 24.5 14.5 21 20 21C25.5 21 30 24.5 30 32H10Z" fill="url(#fav-grad)" opacity="0.9" />
  
  <!-- Person 2 (Left) -->
  <circle cx="8" cy="18" r="4.5" fill="url(#fav-grad)" opacity="0.75" />
  <path d="M1 32C1 26.5 4 24.5 8 24.5C12 24.5 15 26.5 15 32H1Z" fill="url(#fav-grad)" opacity="0.65" />
  
  <!-- Person 3 (Right) -->
  <circle cx="32" cy="18" r="4.5" fill="url(#fav-grad)" opacity="0.75" />
  <path d="M25 32C25 26.5 28 24.5 32 24.5C36 24.5 39 26.5 39 32H25Z" fill="url(#fav-grad)" opacity="0.65" />
</svg>